# xmcd
#
# Track frame offsets: 
#        150
#        20089
#        43168
#        61067
#        79909
#        97165
#        115898
#        138465
#        155395
#        172112
#        189816
#        205432
#
# Disc length: 2983 seconds
#
# Revision: 0
# Processed by: cddbd v1.5.2PL0 Copyright (c) Steve Scherf et al.
# Submitted via: ExactAudioCopy v0.95a5
#
DISCID=a80ba50c
DTITLE=NO blues - HELA HELA
DYEAR=2010
DGENRE=Arabicana
TTITLE0=Long legged women
TTITLE1=LE
TTITLE2=Wayack
TTITLE3=Longa riad (instrumental)
TTITLE4=Hela, hela
TTITLE5=Be good, do good
TTITLE6=Breaking the chain
TTITLE7=Empty bottle
TTITLE8=The whisper
TTITLE9=Consolation (instrumental)
TTITLE10=Digging a grave
TTITLE11=Farah
EXTD=
EXTT0=
EXTT1=
EXTT2=
EXTT3=
EXTT4=
EXTT5=
EXTT6=
EXTT7=
EXTT8=
EXTT9=
EXTT10=
EXTT11=
PLAYORDER=
